<svg width="20" height="18" viewBox="0 0 20 18" fill="none" xmlns="http://www.w3.org/2000/svg">
<path d="M11.25 0H6.75V4.5H11.25V0Z" fill="black"/>
<path d="M4.5 13.5H0V18H4.5V13.5Z" fill="black"/>
<path d="M4.5 6.75H0V11.25H4.5V6.75Z" fill="black"/>
<path d="M4.5 0H0V4.5H4.5V0Z" fill="black"/>
<path d="M18 0H13.5V4.5H18V0Z" fill="black"/>
<path d="M7.875 15.5925V18H10.2375L16.965 11.2837L14.58 8.89875L7.875 15.5925Z" fill="black"/>
<path d="M11.25 9.03375V6.75H6.75V11.25H9.03375L11.25 9.03375Z" fill="black"/>
<path d="M18.9562 8.505L17.37 6.91875C17.145 6.69375 16.7962 6.69375 16.5712 6.91875L15.3787 8.11125L17.7637 10.4963L18.9562 9.30375C19.1812 9.07875 19.1812 8.73 18.9562 8.505Z" fill="black"/>
</svg>
